<?xml version="1.0" standalone="no"?>
<!DOCTYPE svg PUBLIC "-//W3C//DTD SVG 20010904//EN"
 "http://www.w3.org/TR/2001/REC-SVG-20010904/DTD/svg10.dtd">
<svg version="1.0" xmlns="http://www.w3.org/2000/svg"
 width="960.000000pt" height="960.000000pt" viewBox="0 0 960.000000 960.000000"
 preserveAspectRatio="xMidYMid meet">

<g transform="translate(0.000000,960.000000) scale(0.100000,-0.100000)"
fill="#000000" stroke="none">
<path d="M0 4800 l0 -4800 4800 0 4800 0 0 4800 0 4800 -4800 0 -4800 0 0
-4800z m3072 3125 c63 -44 100 -122 93 -195 -2 -30 -7 -66 -11 -80 -4 -21 15
-51 118 -181 68 -86 152 -193 186 -238 l64 -81 99 0 99 0 0 85 0 85 -77 100
-78 100 -55 0 c-174 1 -281 171 -202 321 53 102 169 146 277 104 62 -23 122
-93 131 -151 6 -45 2 -116 -10 -144 -6 -14 79 -135 167 -240 l27 -32 0 -186 1
-187 29 -35 c16 -19 77 -96 135 -170 58 -74 118 -150 133 -169 15 -18 31 -41
36 -50 5 -9 12 -18 16 -21 6 -5 416 -533 505 -650 27 -36 52 -67 55 -70 3 -3
43 -53 88 -113 73 -95 81 -109 70 -127 -10 -16 -10 -22 1 -32 11 -11 12 -9 7
9 -11 36 11 35 40 -3 23 -30 25 -37 13 -46 -11 -8 -11 -9 3 -5 10 4 24 -5 38
-23 12 -15 35 -43 51 -61 16 -18 29 -36 29 -40 0 -4 7 -15 16 -23 8 -9 11 -16
5 -16 -13 0 -51 49 -51 66 0 7 -8 15 -18 18 -10 3 -26 19 -35 36 l-18 30 -30
-35 c-21 -23 -40 -35 -57 -35 -25 0 -26 -1 -9 -17 17 -17 19 -17 31 0 14 18
86 25 86 7 0 -5 -13 -19 -30 -32 -33 -24 -42 -68 -14 -68 10 0 14 6 11 15 -7
17 11 31 24 18 6 -6 2 -16 -11 -28 -24 -22 -25 -29 -4 -49 8 -9 11 -16 7 -16
-5 0 -24 20 -43 45 -19 25 -37 45 -42 45 -4 0 -8 5 -8 11 0 9 -45 71 -75 104
-16 19 -177 220 -290 365 -58 74 -111 142 -118 150 -7 8 -41 53 -77 100 -36
47 -67 87 -70 90 -3 3 -34 41 -69 85 -34 44 -71 89 -81 101 -9 12 -21 28 -26
37 -5 8 -22 30 -39 49 -16 18 -52 63 -80 98 -159 209 -330 420 -339 420 -6 1
-67 2 -135 3 l-125 2 -40 50 c-46 57 -42 51 -240 306 l-145 186 -71 5 c-83 6
-135 35 -177 100 -25 37 -28 51 -28 123 0 78 2 84 35 127 51 67 98 88 187 85
61 -2 78 -7 115 -32z m1184 -88 c81 -42 133 -141 120 -229 -8 -54 -52 -125
-95 -153 l-30 -19 -3 -126 c-2 -69 0 -132 4 -141 4 -9 22 -34 40 -56 18 -22
44 -55 58 -73 28 -38 171 -223 200 -259 33 -42 125 -160 265 -341 75 -96 148
-190 163 -209 39 -50 133 -172 215 -281 39 -52 76 -99 82 -105 20 -19 65 -84
65 -94 0 -6 -8 -11 -17 -11 -13 0 -14 -3 -5 -12 17 -17 15 -36 -5 -41 -14 -4
-13 -5 3 -6 24 -1 37 20 28 44 -11 28 13 15 41 -21 23 -30 24 -34 7 -25 -11 6
-23 16 -25 23 -3 7 -6 0 -6 -15 -1 -16 9 -43 21 -60 18 -25 19 -29 5 -24 -11
4 -22 -1 -32 -16 -8 -12 -15 -16 -15 -10 0 6 7 16 15 23 23 19 18 40 -10 40
-18 0 -28 -7 -35 -26 -6 -14 -15 -22 -21 -18 -8 4 -9 -1 -4 -17 7 -23 6 -22
-15 4 -14 18 -19 34 -15 45 7 15 8 15 16 -3 6 -14 7 -10 3 14 -4 22 -3 31 4
27 6 -4 9 6 8 26 -6 69 -9 71 -16 15 -8 -65 -23 -88 -42 -69 -8 8 -8 12 -1 12
6 0 13 6 16 13 3 7 -3 13 -13 13 -10 0 -16 -5 -14 -11 3 -5 -4 1 -16 15 -12
14 -34 39 -48 55 -15 17 -56 68 -92 115 -36 47 -72 94 -82 105 -20 24 -148
186 -285 360 -146 187 -411 525 -439 560 -12 17 -59 76 -103 132 l-81 103 0
164 c0 154 -1 165 -19 171 -28 9 -80 65 -98 105 -23 52 -20 137 5 187 24 47
83 99 127 113 41 13 135 6 171 -13z m2521 -387 c2 -151 -1 -378 -6 -505 -6
-176 -8 -201 -9 -107 -2 157 -22 166 -23 10 0 -62 -4 -135 -9 -163 l-7 -50 -2
43 c0 23 -5 42 -10 42 -9 0 -71 -57 -71 -66 0 -3 -20 -25 -45 -49 -29 -30 -53
-45 -70 -45 -23 0 -25 -4 -25 -40 0 -22 -4 -40 -10 -40 -5 0 -10 9 -10 20 0
17 -7 20 -39 20 -22 0 -41 5 -44 13 -3 8 -13 4 -31 -12 -34 -32 -33 -41 4 -41
17 0 30 -2 30 -4 0 -10 -73 -76 -85 -76 -7 0 -29 -18 -49 -40 -20 -22 -38 -40
-40 -40 -9 0 -66 -62 -66 -71 0 -5 7 -9 16 -9 14 0 15 -2 3 -17 -13 -15 -14
-15 -17 0 -2 10 -10 17 -17 17 -19 0 -65 -47 -65 -65 0 -11 -13 -15 -51 -15
-43 0 -54 -4 -71 -25 -11 -14 -24 -25 -29 -25 -5 0 -10 30 -11 68 -1 37 -5
-36 -8 -163 l-6 -230 -3 310 c-3 273 -5 297 -13 200 -5 -60 -7 -148 -4 -195 2
-47 1 -107 -3 -135 -5 -27 -9 358 -10 858 l-1 907 453 -2 452 -3 2 -275z
m-3628 -293 c23 -15 56 -49 72 -75 32 -49 33 -65 17 -210 -2 -17 26 -61 97
-152 l100 -129 165 -1 165 0 65 -87 c36 -47 70 -91 75 -97 6 -6 55 -69 111
-141 55 -71 135 -175 178 -230 43 -55 87 -111 97 -125 11 -14 50 -64 87 -111
37 -47 78 -101 92 -119 14 -18 59 -76 100 -130 41 -54 86 -112 100 -130 14
-18 30 -38 36 -44 14 -15 25 -86 13 -86 -6 0 -5 -8 1 -21 7 -11 9 -23 6 -26
-3 -3 6 -12 21 -20 37 -19 41 -8 7 24 -25 24 -27 28 -11 31 18 4 18 5 1 23 -9
10 -14 22 -10 26 4 5 12 0 17 -9 5 -9 29 -41 54 -71 31 -38 39 -54 27 -53 -9
0 -18 -8 -20 -19 -2 -16 -1 -17 7 -5 9 13 12 12 25 -5 8 -11 12 -22 9 -25 -3
-3 -8 1 -10 8 -3 6 -9 12 -14 12 -14 0 -11 -28 4 -33 6 -3 3 -5 -8 -4 -15 1
-20 8 -20 31 0 17 3 36 8 43 4 6 2 15 -5 19 -6 4 -14 2 -16 -4 -2 -7 -10 -12
-18 -12 -8 0 -14 -6 -14 -14 0 -8 -10 -18 -22 -22 -22 -7 -38 -21 -38 -37 0
-4 3 -6 8 -6 21 4 30 -3 25 -19 -2 -10 3 -24 11 -31 10 -8 16 -9 16 -3 0 6 -5
14 -10 17 -13 8 6 35 24 34 7 0 6 -2 -1 -6 -17 -6 -17 -30 -1 -35 10 -4 9 -8
-2 -20 -14 -13 -19 -10 -49 28 -33 44 -33 44 -17 78 21 44 20 51 -4 53 -11 1
-20 -4 -20 -12 0 -9 -6 -12 -16 -8 -14 5 -15 3 -4 -18 l13 -23 8 22 c5 12 13
22 19 22 12 0 -3 -34 -19 -44 -12 -8 -38 24 -46 56 -4 15 -14 33 -23 40 -15
12 -16 11 -3 -5 8 -9 12 -20 9 -23 -3 -2 -31 30 -64 73 -32 43 -85 112 -119
153 -33 41 -85 107 -114 145 -30 39 -63 79 -73 90 -10 11 -56 70 -102 130 -47
61 -163 210 -258 331 -95 122 -182 233 -193 248 l-20 26 -163 0 c-157 0 -165
1 -183 23 -11 12 -69 85 -129 163 l-109 141 -63 5 c-72 6 -115 25 -157 69 -85
89 -82 229 6 310 52 49 82 59 159 57 58 -3 78 -8 113 -31z m3618 -579 c-2 -13
-4 -3 -4 22 0 25 2 35 4 23 2 -13 2 -33 0 -45z m-3609 -182 l112 -146 159 0
c88 0 166 -3 175 -6 8 -3 44 -45 80 -92 36 -48 99 -131 141 -185 l75 -98 -1
-547 c-2 -761 -17 -1208 -24 -730 -1 65 -5 121 -9 125 -5 5 -5 -29 -1 -74 5
-58 4 -83 -4 -83 -7 0 -12 -30 -13 -82 0 -46 -3 -68 -5 -50 -5 40 -14 40 -46
2 -28 -33 -37 -37 -37 -16 0 17 -88 28 -107 13 -25 -18 -13 -27 37 -27 28 0
50 -4 50 -8 0 -8 -67 -72 -75 -72 -10 0 -65 -64 -65 -76 0 -10 -12 -14 -41
-14 -34 0 -47 -7 -80 -38 -21 -22 -39 -44 -39 -50 0 -7 -16 -12 -40 -12 -34 0
-40 -3 -40 -21 0 -22 -79 -109 -98 -109 -16 0 -62 -49 -62 -65 0 -8 -6 -15
-14 -15 -7 0 -20 -10 -28 -22 -12 -18 -23 -21 -66 -19 l-52 2 -1 -53 c-1 -29
-4 -78 -9 -108 -6 -45 -7 -31 -9 73 -1 167 -20 171 -23 5 -1 -68 -5 122 -9
422 -3 300 -7 961 -7 1470 l-2 925 33 -36 c17 -20 83 -102 145 -183z m2255
-749 c-2 -4 3 -19 11 -32 19 -28 10 -34 -11 -7 -31 39 -34 51 -14 49 11 0 17
-5 14 -10z m41 -32 c13 -20 14 -29 6 -43 -10 -15 -11 -14 -7 5 3 12 -1 27 -9
34 -13 10 -19 29 -10 29 2 0 11 -11 20 -25z m-131 -35 c-3 -12 0 -20 6 -20 7
0 9 -5 6 -11 -5 -6 -13 -2 -22 11 -13 19 -13 24 -2 31 8 5 15 9 16 9 0 0 -1
-9 -4 -20z m171 -16 c3 -8 2 -12 -4 -9 -6 3 -10 10 -10 16 0 14 7 11 14 -7z
m-40 -30 c3 -8 2 -12 -4 -9 -6 3 -10 10 -10 16 0 14 7 11 14 -7z m30 0 c3 -8
2 -12 -4 -9 -6 3 -10 10 -10 16 0 14 7 11 14 -7z m-430 -60 c3 -8 2 -12 -4 -9
-6 3 -10 10 -10 16 0 14 7 11 14 -7z m376 -76 c0 -6 -7 -5 -15 2 -8 7 -15 17
-15 22 0 6 7 5 15 -2 8 -7 15 -17 15 -22z m-205 -98 l20 -25 -22 19 c-13 11
-23 24 -23 29 0 6 1 8 3 6 1 -2 11 -15 22 -29z m-145 -57 c-11 -17 -11 -17 -6
0 3 10 6 24 7 30 0 9 2 9 5 0 3 -7 0 -20 -6 -30z m40 -43 c0 -5 -7 -7 -15 -4
-8 4 -15 8 -15 10 0 2 7 4 15 4 8 0 15 -4 15 -10z m-232 -59 c20 -28 20 -29 1
-24 -11 3 -18 8 -15 11 3 2 1 13 -5 23 -14 28 -6 23 19 -10z m37 -74 c0 -29
-39 -30 -42 -1 -3 18 -2 18 6 -1 8 -19 8 -19 20 3 15 28 16 27 16 -1z m483 -2
c-3 -3 -9 2 -12 12 -6 14 -5 15 5 6 7 -7 10 -15 7 -18z m-614 -40 c-4 -8 -11
-12 -17 -8 -8 5 -7 8 1 11 7 2 9 9 6 14 -4 7 -2 8 4 4 6 -4 9 -13 6 -21z m467
-17 c8 -15 8 -18 0 -14 -6 4 -16 16 -22 28 -8 15 -8 18 0 14 6 -4 16 -16 22
-28z m-400 -85 c13 -16 12 -17 -3 -4 -17 13 -22 21 -14 21 2 0 10 -8 17 -17z
m-1698 -1300 c-24 -2 -62 -2 -85 0 -24 2 -5 4 42 4 47 0 66 -2 43 -4z m3637
-388 c0 -8 -10 -25 -21 -36 -19 -19 -29 -21 -85 -15 -39 4 -65 3 -69 -4 -9
-15 -35 -12 -35 4 0 8 12 24 27 36 23 18 35 20 79 14 31 -3 59 -2 71 5 25 14
33 14 33 -4z m-4110 -140 c-31 -32 -39 -35 -92 -35 l-58 0 0 -235 0 -235 -40
0 -40 0 0 235 0 235 -92 0 -92 0 34 35 34 35 190 0 190 0 -34 -35z m462 -2
c37 -36 38 -39 38 -109 0 -69 -1 -74 -31 -97 l-32 -25 32 -23 31 -23 0 -113 0
-113 -40 0 -40 0 0 115 0 115 -130 0 -130 0 0 -115 0 -115 -40 0 -40 0 0 263
c0 145 3 267 7 270 3 4 81 7 172 7 l165 0 38 -37z m521 3 l37 -34 0 -203 0
-203 -32 -33 -32 -33 -140 0 -140 0 -38 37 -38 37 0 192 0 192 38 41 37 41
136 0 135 0 37 -34z m327 -118 c52 -84 110 -175 127 -203 l33 -50 1 160 c1 88
0 172 -1 187 -1 21 6 30 29 42 16 9 35 16 41 16 7 0 10 -88 10 -270 l0 -270
-39 0 -39 0 -83 133 c-45 72 -104 165 -131 205 l-48 74 0 -206 0 -206 -35 0
-35 0 0 258 c0 259 0 259 23 270 12 6 29 11 37 11 9 1 53 -61 110 -151z m728
117 l-36 -34 -134 -3 -133 -3 -3 -197 -2 -198 130 0 130 0 0 80 0 80 -85 0
c-47 0 -85 2 -85 5 0 2 13 18 30 35 29 29 32 30 125 30 l95 0 0 -114 0 -113
-34 -37 -35 -36 -135 0 -135 0 -36 31 -35 31 0 203 0 203 40 36 40 36 168 0
167 0 -37 -35z m572 -147 c167 -270 150 -265 150 -36 l0 195 25 11 c14 7 30
12 35 12 6 0 10 -106 10 -270 l0 -270 -36 0 c-44 0 -33 -14 -176 217 -62 101
-116 183 -120 183 -5 0 -8 -90 -8 -200 l0 -200 -35 0 -35 0 0 254 c0 252 0
255 22 270 12 9 30 16 38 16 10 0 59 -69 130 -182z m710 147 l-34 -35 -133 0
-133 0 0 -200 0 -200 125 0 125 0 0 80 0 80 -87 0 -87 0 34 35 34 35 93 0 93
0 0 -118 0 -119 -35 -31 -34 -32 -134 0 -133 0 -37 35 -37 35 0 199 0 199 40
36 40 36 167 0 167 0 -34 -35z m184 24 c24 -11 25 -16 28 -113 l3 -101 113 0
113 0 2 113 c1 61 4 112 8 112 3 0 20 -5 38 -11 l31 -11 0 -260 0 -259 -36 3
-37 3 -1 115 -1 115 -115 0 -115 0 -3 -117 -3 -118 -34 0 -35 0 0 270 c0 164
4 270 10 270 5 0 20 -5 34 -11z m536 -259 l0 -270 -35 0 -35 0 0 270 0 270 35
0 35 0 0 -270z m502 233 l38 -37 0 -233 0 -233 -35 0 -34 0 -3 98 -3 97 -127
3 -128 3 -1 -76 c-1 -41 -3 -79 -4 -85 -1 -5 -3 -17 -4 -25 -1 -10 -12 -15
-36 -15 l-35 0 0 232 0 232 37 38 37 38 130 0 130 0 38 -37z m-3692 -583 c0
-39 -1 -40 -35 -40 -34 0 -35 1 -35 40 0 39 1 40 35 40 34 0 35 -1 35 -40z
m411 -269 c45 -105 144 -311 149 -311 4 0 45 81 93 180 58 122 91 180 102 180
9 0 29 -7 45 -15 l30 -16 0 -254 0 -255 -35 0 -35 0 -2 208 -3 207 -22 -45
c-12 -25 -47 -99 -77 -165 l-56 -120 -41 0 -41 0 -71 162 c-53 120 -74 158
-80 146 -5 -8 -8 -99 -6 -202 l4 -186 -35 0 -35 0 0 250 0 249 40 23 c21 12
43 19 48 16 5 -3 18 -26 28 -52z m1109 -187 l0 -234 125 0 125 0 0 235 c0 129
4 235 9 235 4 0 22 -5 40 -11 l31 -11 0 -221 0 -221 -37 -38 -37 -38 -133 0
-133 0 -35 38 -34 37 -1 221 0 220 33 16 c17 9 35 14 40 11 4 -2 7 -110 7
-239z m-1869 204 l31 -33 -166 -3 -166 -2 0 -200 0 -200 172 0 172 0 -34 -35
-34 -35 -138 0 -138 0 -41 42 -40 42 2 189 2 190 36 38 35 39 138 0 138 0 31
-32z m495 -5 l34 -38 0 -195 0 -194 -37 -38 -37 -38 -138 0 -138 0 -35 38 -34
37 -1 194 0 194 33 37 32 38 143 1 144 1 34 -37z m1178 -3 l36 -40 -1 -91 c-1
-90 -2 -92 -36 -130 l-35 -39 -134 0 -134 0 0 -100 0 -100 -35 0 -35 0 0 270
0 270 169 0 169 0 36 -40z m1006 34 c0 -3 -15 -18 -32 -35 -28 -25 -40 -29
-90 -29 l-58 0 0 -235 0 -235 -35 0 -35 0 0 235 0 235 -90 0 c-49 0 -90 2 -90
5 0 3 15 19 33 35 l32 29 183 1 c100 0 182 -3 182 -6z m400 -29 l-34 -35 -118
0 -118 0 0 -80 0 -80 132 0 132 0 -34 -35 -34 -35 -98 0 -98 0 0 -85 0 -85
152 0 152 0 -34 -35 -34 -35 -155 0 -156 0 3 270 3 270 186 0 187 0 -34 -35z
m491 3 l39 -31 0 -78 c0 -73 -2 -80 -25 -95 -14 -9 -25 -21 -25 -26 0 -6 11
-19 25 -30 24 -19 25 -24 25 -134 l0 -114 -40 0 -40 0 0 120 0 120 -130 0
-130 0 0 -121 0 -120 -37 3 -38 3 -3 255 c-1 140 0 260 3 267 3 10 46 13 170
13 l166 0 40 -32z"/>
<path d="M2902 7794 c-26 -18 -29 -68 -7 -98 22 -29 82 -27 106 3 24 30 24 52
-2 85 -24 30 -63 34 -97 10z"/>
<path d="M3450 7783 c-39 -50 3 -121 65 -109 36 8 55 30 55 68 0 64 -80 92
-120 41z"/>
<path d="M4885 5610 c-3 -5 -1 -10 4 -10 6 0 11 5 11 10 0 6 -2 10 -4 10 -3 0
-8 -4 -11 -10z"/>
<path d="M4827 5574 c3 -7 9 -14 14 -14 14 0 10 17 -5 23 -10 4 -13 1 -9 -9z"/>
<path d="M4860 5540 c0 -5 5 -10 10 -10 6 0 10 5 10 10 0 6 -4 10 -10 10 -5 0
-10 -4 -10 -10z"/>
<path d="M4980 5530 c0 -5 5 -10 10 -10 6 0 10 5 10 10 0 6 -4 10 -10 10 -5 0
-10 -4 -10 -10z"/>
<path d="M4937 5490 c-7 -28 1 -46 14 -33 6 6 6 19 1 33 l-9 24 -6 -24z"/>
<path d="M4112 7694 c-16 -11 -22 -25 -22 -54 0 -29 6 -43 22 -54 51 -36 111
-6 111 56 0 56 -63 86 -111 52z"/>
<path d="M5135 5930 c-3 -5 -1 -10 4 -10 6 0 11 5 11 10 0 6 -2 10 -4 10 -3 0
-8 -4 -11 -10z"/>
<path d="M5175 5730 c3 -5 8 -10 11 -10 2 0 4 5 4 10 0 6 -5 10 -11 10 -5 0
-7 -4 -4 -10z"/>
<path d="M6377 6583 c-12 -11 -8 -23 8 -23 8 0 15 7 15 15 0 16 -12 20 -23 8z"/>
<path d="M6296 6504 c-18 -18 -18 -19 -2 -22 10 -2 20 -1 23 1 2 3 3 13 1 23
-3 16 -4 16 -22 -2z"/>
<path d="M6225 6490 c-3 -5 -1 -10 4 -10 6 0 11 5 11 10 0 6 -2 10 -4 10 -3 0
-8 -4 -11 -10z"/>
<path d="M6217 6423 c-12 -11 -8 -23 8 -23 8 0 15 7 15 15 0 16 -12 20 -23 8z"/>
<path d="M6145 6410 c-3 -5 -1 -10 4 -10 6 0 11 5 11 10 0 6 -2 10 -4 10 -3 0
-8 -4 -11 -10z"/>
<path d="M6057 6343 c-12 -11 -8 -23 8 -23 8 0 15 7 15 15 0 16 -12 20 -23 8z"/>
<path d="M6056 6264 c-18 -18 -18 -19 -2 -22 10 -2 20 -1 23 1 2 3 3 13 1 23
-3 16 -4 16 -22 -2z"/>
<path d="M2980 7020 c-11 -11 -20 -31 -20 -45 0 -31 41 -75 70 -75 28 0 70 43
70 73 0 57 -79 88 -120 47z"/>
<path d="M4540 5429 c0 -5 5 -7 10 -4 6 3 10 8 10 11 0 2 -4 4 -10 4 -5 0 -10
-5 -10 -11z"/>
<path d="M4655 5370 c-3 -5 -1 -10 4 -10 6 0 11 5 11 10 0 6 -2 10 -4 10 -3 0
-8 -4 -11 -10z"/>
<path d="M4626 5265 c4 -8 8 -15 10 -15 2 0 4 7 4 15 0 8 -4 15 -10 15 -5 0
-7 -7 -4 -15z"/>
<path d="M4760 5266 c0 -9 7 -19 15 -23 25 -9 27 2 5 22 -18 17 -20 17 -20 1z"/>
<path d="M3817 4583 c-12 -11 -8 -23 8 -23 8 0 15 7 15 15 0 16 -12 20 -23 8z"/>
<path d="M3487 4272 c-23 -25 -21 -32 8 -32 20 0 25 5 25 25 0 30 -11 32 -33
7z"/>
<path d="M3340 4175 c-10 -12 -10 -15 4 -15 9 0 16 7 16 15 0 8 -2 15 -4 15
-2 0 -9 -7 -16 -15z"/>
<path d="M3185 4090 c-3 -5 -1 -10 4 -10 6 0 11 5 11 10 0 6 -2 10 -4 10 -3 0
-8 -4 -11 -10z"/>
<path d="M3082 3957 c-29 -31 -28 -37 8 -37 27 0 30 3 30 30 0 36 -9 38 -38 7z"/>
<path d="M2850 2980 l0 -80 130 0 130 0 0 80 0 80 -130 0 -130 0 0 -80z"/>
<path d="M3370 2860 l0 -200 135 0 135 0 0 200 0 200 -135 0 -135 0 0 -200z"/>
<path d="M6940 3055 c-1 -3 -1 -47 -1 -97 l-1 -93 131 -3 132 -3 -3 98 -3 98
-127 3 c-71 1 -128 0 -128 -3z"/>
<path d="M3380 2020 l0 -201 133 3 132 3 0 195 0 195 -132 3 -133 3 0 -201z"/>
<path d="M4562 2120 l0 -100 129 0 129 0 0 100 0 100 -129 0 -128 0 -1 -100z"/>
<path d="M6460 2140 l0 -80 130 0 130 0 0 80 0 80 -130 0 -130 0 0 -80z"/>
</g>
</svg>
